<svg width="20" height="22" viewBox="0 0 20 22" fill="none" xmlns="http://www.w3.org/2000/svg">
<path d="M0.704216 11.5396C0.369481 11.4066 0 11.6494 0 12.0096V17.3749C0 19.5841 1.79086 21.3749 4 21.3749H16C18.2091 21.3749 20 19.5841 20 17.3749V12.0097C20 11.6495 19.6305 11.4067 19.2958 11.5397C18.029 12.0431 16.4079 12.5626 14.5036 12.9086C13.7992 13.0366 13.2884 13.6419 12.9597 14.2779C12.461 15.2428 11.454 15.9023 10.293 15.9023H9.70694C8.5459 15.9023 7.53891 15.2428 7.0402 14.2779C6.71148 13.6419 6.20068 13.0366 5.4963 12.9086C3.59207 12.5626 1.97099 12.0431 0.704216 11.5396Z" fill="#E25319"/>
<path fill-rule="evenodd" clip-rule="evenodd" d="M16 5.375H4C1.79086 5.375 0 7.16586 0 9.375C0 9.59208 0.107423 9.79351 0.29492 9.9029C1.14278 10.3976 3.7673 11.7693 7.49817 12.2321V12.6891C7.49817 13.7937 8.3936 14.6891 9.49817 14.6891H10.5016C11.6062 14.6891 12.5016 13.7937 12.5016 12.6891V12.2322C16.2326 11.7694 18.8572 10.3976 19.7051 9.9029C19.8926 9.79351 20 9.59208 20 9.375C20 7.16586 18.2091 5.375 16 5.375ZM9.07512 11.4694C8.96467 11.4694 8.87512 11.5589 8.87512 11.6694V12.6582C8.87512 13.1 9.23329 13.4582 9.67512 13.4582H10.3248C10.7666 13.4582 11.1248 13.1 11.1248 12.6582V11.6694C11.1248 11.5589 11.0352 11.4694 10.9248 11.4694H9.07512Z" fill="#E25319"/>
<path fill-rule="evenodd" clip-rule="evenodd" d="M8.99988 2.125C7.75724 2.125 6.74988 3.13236 6.74988 4.375V5.375C6.74988 5.78921 6.41409 6.125 5.99988 6.125C5.58566 6.125 5.24988 5.78921 5.24988 5.375V4.375C5.24988 2.30393 6.92881 0.625 8.99988 0.625H10.9999C13.0709 0.625 14.7499 2.30393 14.7499 4.375V5.375C14.7499 5.78921 14.4141 6.125 13.9999 6.125C13.5857 6.125 13.2499 5.78921 13.2499 5.375V4.375C13.2499 3.13236 12.2425 2.125 10.9999 2.125H8.99988Z" fill="#E25319"/>
</svg>
