<svg width="66" height="40" viewBox="0 0 66 40" fill="none" xmlns="http://www.w3.org/2000/svg">
<rect x="0.260071" width="65.0155" height="40" rx="5" fill="#E25319" fill-opacity="0.05"/>
<path d="M29.4345 14.9998V14.1665C29.4345 12.7858 30.5538 11.6665 31.9345 11.6665H33.6012C34.9819 11.6665 36.1012 12.7858 36.1012 14.1665V14.9998M24.4345 18.6227C24.4345 18.6227 27.0329 20.3535 31.0826 20.7589M41.1012 18.6227C41.1012 18.6227 38.5028 20.3535 34.4531 20.7589M27.7678 28.3332H37.7678C39.6088 28.3332 41.1012 26.8408 41.1012 24.9998V18.3332C41.1012 16.4922 39.6088 14.9998 37.7678 14.9998H27.7678C25.9269 14.9998 24.4345 16.4922 24.4345 18.3332V24.9998C24.4345 26.8408 25.9269 28.3332 27.7678 28.3332Z" stroke="#E25319" stroke-width="1.5" stroke-linecap="round"/>
<path d="M34.4345 20.1331V20.9665C34.4345 20.9748 34.4345 20.9748 34.4345 20.9831C34.4345 21.8915 34.4261 22.6331 32.7678 22.6331C31.1178 22.6331 31.1011 21.8998 31.1011 20.9915V20.1331C31.1011 19.2998 31.1011 19.2998 31.9345 19.2998H33.6011C34.4345 19.2998 34.4345 19.2998 34.4345 20.1331Z" stroke="#E25319" stroke-width="1.5" stroke-miterlimit="10" stroke-linecap="round" stroke-linejoin="round"/>
</svg>
