<svg width="66" height="40" viewBox="0 0 66 40" fill="none" xmlns="http://www.w3.org/2000/svg">
<rect x="0.260071" width="65.0155" height="40" rx="5" fill="#E25319" fill-opacity="0.05"/>
<g clip-path="url(#clip0_1_1161)">
<path d="M28.6012 28.3332C30.1574 28.3332 31.4645 27.2667 31.8316 25.8247C31.9452 25.3787 32.3076 24.9998 32.7678 24.9998H38.6012M28.6012 28.3332C26.7602 28.3332 25.2678 26.8408 25.2678 24.9998V14.1665C25.2678 12.7858 26.3871 11.6665 27.7678 11.6665H36.1012C37.4819 11.6665 38.6012 12.7858 38.6012 14.1665V24.9998M28.6012 28.3332H38.6012C40.1574 28.3332 41.4645 27.2667 41.8316 25.8247C41.9452 25.3787 41.5614 24.9998 41.1012 24.9998H38.6012M35.2678 15.8332H28.6012M31.9345 19.9998H28.6012" stroke="#E25319" stroke-width="1.5" stroke-linecap="round"/>
</g>
<defs>
<clipPath id="clip0_1_1161">
<rect width="20" height="20" fill="white" transform="translate(22.7678 10)"/>
</clipPath>
</defs>
</svg>
