<svg width="66" height="40" viewBox="0 0 66 40" fill="none" xmlns="http://www.w3.org/2000/svg">
<rect x="0.00619507" width="65.0155" height="40" rx="5" fill="#E25319" fill-opacity="0.05"/>
<ellipse cx="32.5139" cy="23.7498" rx="5" ry="2.08333" stroke="#E25319" stroke-width="1.5" stroke-linejoin="round"/>
<ellipse cx="32.5139" cy="16.6665" rx="2.5" ry="2.5" stroke="#E25319" stroke-width="1.5" stroke-linejoin="round"/>
<path fill-rule="evenodd" clip-rule="evenodd" d="M28.1428 20.9185C26.9988 20.9391 25.9369 21.1326 25.1224 21.4584C24.6931 21.6301 24.2954 21.8534 23.9927 22.1396C23.6884 22.4274 23.4306 22.8305 23.4306 23.3333C23.4306 23.8361 23.6884 24.2392 23.9927 24.5269C24.2954 24.8132 24.6931 25.0364 25.1224 25.2081C25.5921 25.396 26.1439 25.5399 26.7464 25.632C26.2109 25.1138 25.8897 24.5169 25.8512 23.8797C25.7919 23.8589 25.7346 23.8375 25.6795 23.8154C25.3548 23.6855 25.1424 23.5496 25.0234 23.4371C24.9704 23.387 24.9464 23.3524 24.9359 23.3333C24.9464 23.3142 24.9704 23.2795 25.0234 23.2295C25.1424 23.1169 25.3548 22.981 25.6795 22.8511C25.8111 22.7985 25.955 22.7493 26.1099 22.7043C26.4715 22.0024 27.1879 21.3853 28.1428 20.9185ZM24.9285 23.3508C24.9284 23.3508 24.9286 23.3494 24.9296 23.3467C24.9291 23.3494 24.9286 23.3508 24.9285 23.3508ZM24.9296 23.3199C24.9286 23.3172 24.9284 23.3158 24.9285 23.3158C24.9286 23.3158 24.9291 23.3172 24.9296 23.3199Z" fill="#E25319"/>
<path fill-rule="evenodd" clip-rule="evenodd" d="M39.1767 23.8797C39.1382 24.5169 38.817 25.1138 38.2815 25.632C38.884 25.5399 39.4358 25.396 39.9055 25.2081C40.3348 25.0364 40.7325 24.8132 41.0352 24.5269C41.3395 24.2392 41.5973 23.8361 41.5973 23.3333C41.5973 22.8305 41.3395 22.4274 41.0352 22.1396C40.7325 21.8534 40.3348 21.6301 39.9055 21.4584C39.091 21.1326 38.0291 20.9391 36.8851 20.9185C37.84 21.3853 38.5564 22.0024 38.918 22.7043C39.0729 22.7493 39.2168 22.7985 39.3484 22.8511C39.6731 22.981 39.8855 23.1169 40.0045 23.2295C40.0575 23.2795 40.0815 23.3142 40.092 23.3333C40.0815 23.3524 40.0575 23.387 40.0045 23.4371C39.8855 23.5496 39.6731 23.6855 39.3484 23.8154C39.2933 23.8375 39.236 23.8589 39.1767 23.8797ZM40.0994 23.3508C40.0993 23.3508 40.0988 23.3494 40.0983 23.3467C40.0993 23.3494 40.0996 23.3508 40.0994 23.3508ZM40.0983 23.3199C40.0988 23.3172 40.0993 23.3158 40.0994 23.3158C40.0996 23.3158 40.0993 23.3172 40.0983 23.3199Z" fill="#E25319"/>
<path fill-rule="evenodd" clip-rule="evenodd" d="M36.3281 18.3466C36.1217 18.8146 35.8317 19.2375 35.477 19.5962C35.8314 19.8002 36.2424 19.9168 36.6806 19.9168C38.0153 19.9168 39.0973 18.8349 39.0973 17.5002C39.0973 16.1655 38.0153 15.0835 36.6806 15.0835C36.5778 15.0835 36.4764 15.0899 36.377 15.1024C36.5629 15.5611 36.6695 16.0605 36.6798 16.5835C36.6801 16.5835 36.6803 16.5835 36.6806 16.5835C37.1869 16.5835 37.5973 16.9939 37.5973 17.5002C37.5973 18.0064 37.1869 18.4168 36.6806 18.4168C36.5557 18.4168 36.4367 18.3919 36.3281 18.3466Z" fill="#E25319"/>
<path fill-rule="evenodd" clip-rule="evenodd" d="M28.6509 15.1024C28.5515 15.0899 28.4501 15.0835 28.3473 15.0835C27.0126 15.0835 25.9306 16.1655 25.9306 17.5002C25.9306 18.8349 27.0126 19.9168 28.3473 19.9168C28.7855 19.9168 29.1965 19.8002 29.5509 19.5962C29.1962 19.2375 28.9061 18.8146 28.6997 18.3466C28.5912 18.3919 28.4722 18.4168 28.3473 18.4168C27.841 18.4168 27.4306 18.0064 27.4306 17.5002C27.4306 16.9939 27.841 16.5835 28.3473 16.5835C28.3475 16.5835 28.3478 16.5835 28.3481 16.5835C28.3583 16.0605 28.465 15.5611 28.6509 15.1024Z" fill="#E25319"/>
</svg>
