<svg width="55" height="26" viewBox="0 0 55 26" fill="none" xmlns="http://www.w3.org/2000/svg">
<rect x="0.969055" width="54" height="26" rx="5" fill="#30BE82" fill-opacity="0.1"/>
<path d="M13.2011 16.75L16.737 16.75C18.2806 16.75 19.2423 15.0756 18.4645 13.7423L16.6966 10.7115C15.9249 9.38852 14.0133 9.38852 13.2415 10.7115L11.4736 13.7423C10.6958 15.0756 11.6575 16.75 13.2011 16.75Z" fill="#30BE82"/>
<path d="M31.2461 16.626V9.982L31.5651 10.224L30.1351 11.082L29.8821 10.312L31.7851 9.19H32.1151V16.626H31.2461ZM30.1131 17V16.164H33.2701V17H30.1131ZM35.0301 17L34.7661 16.362L37.3621 13.447C37.4868 13.3077 37.6151 13.15 37.7471 12.974C37.8865 12.798 38.0148 12.6147 38.1321 12.424C38.2568 12.226 38.3558 12.0317 38.4291 11.841C38.5025 11.6503 38.5391 11.4633 38.5391 11.28C38.5391 11.0087 38.4805 10.7813 38.3631 10.598C38.2458 10.4073 38.0771 10.2607 37.8571 10.158C37.6445 10.0553 37.3951 10.004 37.1091 10.004C36.8598 10.004 36.6141 10.0627 36.3721 10.18C36.1301 10.2973 35.9101 10.477 35.7121 10.719C35.5141 10.961 35.3601 11.269 35.2501 11.643L34.5681 11.236C34.7001 10.7887 34.8945 10.4147 35.1511 10.114C35.4078 9.806 35.7121 9.575 36.0641 9.421C36.4161 9.267 36.7938 9.19 37.1971 9.19C37.6225 9.19 38.0038 9.278 38.3411 9.454C38.6785 9.62267 38.9461 9.86467 39.1441 10.18C39.3421 10.488 39.4411 10.8437 39.4411 11.247C39.4411 11.423 39.4191 11.599 39.3751 11.775C39.3385 11.951 39.2798 12.127 39.1991 12.303C39.1185 12.479 39.0195 12.6587 38.9021 12.842C38.7921 13.0253 38.6601 13.2123 38.5061 13.403C38.3595 13.5937 38.1945 13.7917 38.0111 13.997L35.8001 16.461L35.6681 16.175H39.6831V17H35.0301ZM41.6175 17L46.7325 9.3H47.6015L42.4645 17H41.6175ZM42.1895 13.381C41.8595 13.381 41.5662 13.293 41.3095 13.117C41.0602 12.9337 40.8622 12.688 40.7155 12.38C40.5762 12.0647 40.5065 11.7053 40.5065 11.302C40.5065 10.8987 40.5762 10.5393 40.7155 10.224C40.8622 9.90133 41.0638 9.652 41.3205 9.476C41.5772 9.29267 41.8705 9.201 42.2005 9.201C42.5305 9.201 42.8202 9.29267 43.0695 9.476C43.3262 9.652 43.5242 9.90133 43.6635 10.224C43.8102 10.5393 43.8835 10.8987 43.8835 11.302C43.8835 11.6907 43.8102 12.0427 43.6635 12.358C43.5168 12.6733 43.3152 12.9227 43.0585 13.106C42.8018 13.2893 42.5122 13.381 42.1895 13.381ZM42.2005 12.721C42.3985 12.721 42.5672 12.666 42.7065 12.556C42.8532 12.4387 42.9632 12.2737 43.0365 12.061C43.1172 11.8483 43.1575 11.5917 43.1575 11.291C43.1575 10.9977 43.1172 10.7447 43.0365 10.532C42.9632 10.3193 42.8532 10.1543 42.7065 10.037C42.5598 9.91967 42.3875 9.861 42.1895 9.861C41.9915 9.861 41.8192 9.92333 41.6725 10.048C41.5258 10.1653 41.4122 10.3303 41.3315 10.543C41.2582 10.7557 41.2215 11.0087 41.2215 11.302C41.2215 11.5953 41.2582 11.8483 41.3315 12.061C41.4122 12.2737 41.5258 12.4387 41.6725 12.556C41.8192 12.666 41.9952 12.721 42.2005 12.721ZM47.0625 17.099C46.7325 17.099 46.4392 17.011 46.1825 16.835C45.9332 16.6517 45.7352 16.406 45.5885 16.098C45.4418 15.7827 45.3685 15.4233 45.3685 15.02C45.3685 14.6167 45.4382 14.2573 45.5775 13.942C45.7242 13.6193 45.9258 13.37 46.1825 13.194C46.4392 13.0107 46.7325 12.919 47.0625 12.919C47.3925 12.919 47.6822 13.0107 47.9315 13.194C48.1882 13.37 48.3862 13.6193 48.5255 13.942C48.6722 14.2573 48.7455 14.6167 48.7455 15.02C48.7455 15.4087 48.6722 15.7607 48.5255 16.076C48.3788 16.3913 48.1772 16.6407 47.9205 16.824C47.6712 17.0073 47.3852 17.099 47.0625 17.099ZM47.0625 16.439C47.2605 16.439 47.4328 16.384 47.5795 16.274C47.7262 16.1567 47.8362 15.9917 47.9095 15.779C47.9902 15.5663 48.0305 15.3097 48.0305 15.009C48.0305 14.7157 47.9902 14.4627 47.9095 14.25C47.8362 14.0373 47.7262 13.8723 47.5795 13.755C47.4328 13.6377 47.2605 13.579 47.0625 13.579C46.8572 13.579 46.6812 13.6377 46.5345 13.755C46.3952 13.8723 46.2852 14.041 46.2045 14.261C46.1312 14.4737 46.0945 14.7267 46.0945 15.02C46.0945 15.3133 46.1312 15.5663 46.2045 15.779C46.2852 15.9917 46.3952 16.1567 46.5345 16.274C46.6812 16.384 46.8572 16.439 47.0625 16.439Z" fill="#30BE82"/>
</svg>
