<svg width="68" height="24" viewBox="0 0 68 24" fill="none" xmlns="http://www.w3.org/2000/svg">
<path fill-rule="evenodd" clip-rule="evenodd" d="M16.0304 3.54975C16.3233 3.84264 16.3233 4.31752 16.0304 4.61041L9.51042 11.1304C9.03331 11.6075 9.03331 12.3926 9.51042 12.8697L16.0304 19.3897C16.3233 19.6826 16.3233 20.1575 16.0304 20.4504C15.7375 20.7433 15.2627 20.7433 14.9698 20.4504L8.44976 13.9304C7.38686 12.8675 7.38686 11.1326 8.44976 10.0697L14.9698 3.54975C15.2627 3.25685 15.7375 3.25685 16.0304 3.54975Z" fill="white"/>
<path d="M31.148 18V6.8H35.692C36.3427 6.8 36.9027 6.91733 37.372 7.152C37.852 7.376 38.22 7.70133 38.476 8.128C38.732 8.544 38.86 9.04 38.86 9.616C38.86 10.2347 38.684 10.768 38.332 11.216C37.98 11.6533 37.5 11.9573 36.892 12.128L36.86 11.824C37.3827 11.92 37.836 12.1067 38.22 12.384C38.604 12.6507 38.9027 12.9813 39.116 13.376C39.34 13.7707 39.452 14.2133 39.452 14.704C39.452 15.2053 39.3667 15.6587 39.196 16.064C39.0253 16.4693 38.78 16.816 38.46 17.104C38.1507 17.392 37.772 17.616 37.324 17.776C36.8867 17.9253 36.396 18 35.852 18H31.148ZM32.396 16.784H35.756C36.236 16.784 36.652 16.704 37.004 16.544C37.3667 16.3733 37.644 16.1333 37.836 15.824C38.0387 15.5147 38.14 15.1573 38.14 14.752C38.14 14.368 38.0333 14.032 37.82 13.744C37.6173 13.456 37.3293 13.232 36.956 13.072C36.5933 12.912 36.1667 12.832 35.676 12.832H32.396V16.784ZM32.396 11.616H35.596C35.98 11.616 36.3213 11.5413 36.62 11.392C36.9187 11.232 37.1533 11.0187 37.324 10.752C37.4947 10.4747 37.58 10.1653 37.58 9.824C37.58 9.28 37.3933 8.84267 37.02 8.512C36.6573 8.18133 36.1453 8.016 35.484 8.016H32.396V11.616ZM44.6508 18.16C43.9254 18.16 43.2694 17.9733 42.6828 17.6C42.0961 17.216 41.6321 16.6987 41.2908 16.048C40.9494 15.3867 40.7788 14.64 40.7788 13.808C40.7788 12.9653 40.9548 12.2187 41.3068 11.568C41.6588 10.9173 42.1281 10.4053 42.7148 10.032C43.3121 9.65867 43.9788 9.472 44.7148 9.472C45.1521 9.472 45.5574 9.536 45.9308 9.664C46.3041 9.792 46.6348 9.97333 46.9228 10.208C47.2214 10.432 47.4668 10.6987 47.6588 11.008C47.8614 11.3067 48.0001 11.632 48.0748 11.984L47.7228 11.808L47.7708 9.648H48.9708V18H47.7548V15.952L48.0748 15.744C48.0001 16.064 47.8561 16.3733 47.6428 16.672C47.4294 16.96 47.1681 17.216 46.8588 17.44C46.5601 17.664 46.2188 17.84 45.8348 17.968C45.4614 18.096 45.0668 18.16 44.6508 18.16ZM44.9227 17.008C45.4774 17.008 45.9734 16.8747 46.4108 16.608C46.8481 16.3307 47.1894 15.952 47.4348 15.472C47.6908 14.9813 47.8188 14.4267 47.8188 13.808C47.8188 13.1893 47.6908 12.64 47.4348 12.16C47.1894 11.68 46.8481 11.3013 46.4108 11.024C45.9734 10.7467 45.4774 10.608 44.9227 10.608C44.3574 10.608 43.8561 10.7467 43.4188 11.024C42.9921 11.3013 42.6508 11.68 42.3948 12.16C42.1494 12.64 42.0268 13.1893 42.0268 13.808C42.0268 14.416 42.1494 14.9653 42.3948 15.456C42.6401 15.936 42.9814 16.3147 43.4188 16.592C43.8561 16.8693 44.3574 17.008 44.9227 17.008ZM54.8286 18.16C54.0393 18.16 53.3353 17.9733 52.7166 17.6C52.098 17.216 51.6073 16.6987 51.2446 16.048C50.8926 15.3867 50.7166 14.64 50.7166 13.808C50.7166 12.976 50.8926 12.2347 51.2446 11.584C51.6073 10.9227 52.098 10.4053 52.7166 10.032C53.3353 9.65867 54.0446 9.472 54.8446 9.472C55.5593 9.472 56.21 9.616 56.7966 9.904C57.3833 10.1813 57.8526 10.5707 58.2046 11.072L57.5006 11.936C57.298 11.6693 57.0526 11.4347 56.7646 11.232C56.4873 11.0293 56.1833 10.8747 55.8526 10.768C55.5326 10.6507 55.2126 10.592 54.8926 10.592C54.3273 10.592 53.8206 10.736 53.3726 11.024C52.9246 11.3013 52.5673 11.68 52.3006 12.16C52.0446 12.64 51.9166 13.1893 51.9166 13.808C51.9166 14.4267 52.0446 14.9813 52.3006 15.472C52.5673 15.952 52.9246 16.3307 53.3726 16.608C53.8206 16.8853 54.322 17.024 54.8766 17.024C55.1966 17.024 55.5113 16.976 55.8206 16.88C56.13 16.7733 56.4233 16.624 56.7006 16.432C56.978 16.24 57.234 16 57.4686 15.712L58.1726 16.576C57.81 17.056 57.3246 17.44 56.7166 17.728C56.1086 18.016 55.4793 18.16 54.8286 18.16ZM60.8025 15.312L60.7545 13.92L65.1225 9.648H66.7385L60.8025 15.312ZM59.7305 18V6.16H60.9305V18H59.7305ZM65.4585 18L61.9385 13.92L62.7865 13.088L67.0265 18H65.4585Z" fill="white"/>
</svg>
