<svg width="100" height="100" viewBox="0 0 100 100" fill="none" xmlns="http://www.w3.org/2000/svg">
<rect width="100" height="100" rx="10" fill="#A2A1A8" fill-opacity="0.05"/>
<rect x="0.5" y="0.5" width="99" height="99" rx="9.5" stroke="#A2A1A8" stroke-opacity="0.2"/>
<path d="M53 51.5C53 53.1569 51.6569 54.5 50 54.5C48.3431 54.5 47 53.1569 47 51.5C47 49.8431 48.3431 48.5 50 48.5C51.6569 48.5 53 49.8431 53 51.5Z" stroke="white" stroke-width="1.5"/>
<circle cx="50" cy="45" r="1" fill="white"/>
<path d="M59 53.5V49.5C59 46.7386 56.7614 44.5 54 44.5H53.874C53.4299 42.7748 51.8638 41.5 50 41.5C48.1362 41.5 46.5701 42.7748 46.126 44.5H46C43.2386 44.5 41 46.7386 41 49.5V53.5C41 56.2614 43.2386 58.5 46 58.5H54C56.7614 58.5 59 56.2614 59 53.5Z" stroke="white" stroke-width="1.5" stroke-linejoin="round"/>
</svg>
