<svg width="40" height="40" viewBox="0 0 40 40" fill="none" xmlns="http://www.w3.org/2000/svg">
<rect width="40" height="40" rx="10" fill="#E25319"/>
<path fill-rule="evenodd" clip-rule="evenodd" d="M16.2247 14.5579C15.9806 14.802 15.9806 15.1977 16.2247 15.4418C16.4688 15.6859 16.8645 15.6859 17.1086 15.4418L19.3749 13.1754V23.3332C19.3749 23.6784 19.6548 23.9582 19.9999 23.9582C20.3451 23.9582 20.6249 23.6784 20.6249 23.3332L20.6249 13.1754L22.8914 15.4418C23.1355 15.6859 23.5312 15.6859 23.7753 15.4418C24.0193 15.1977 24.0193 14.802 23.7753 14.5579L20.4419 11.2246C20.3247 11.1074 20.1657 11.0415 19.9999 11.0415C19.8342 11.0415 19.6752 11.1074 19.558 11.2246L16.2247 14.5579ZM15.2832 17.8908C15.4991 17.6215 15.4557 17.2281 15.1864 17.0122C14.9171 16.7963 14.5237 16.8396 14.3078 17.1089C13.3072 18.3572 12.7083 19.9428 12.7083 21.6665C12.7083 25.6936 15.9729 28.9582 20 28.9582C24.0271 28.9582 27.2916 25.6936 27.2916 21.6665C27.2916 19.9428 26.6927 18.3572 25.6921 17.1089C25.4762 16.8396 25.0829 16.7963 24.8135 17.0122C24.5442 17.2281 24.5009 17.6215 24.7168 17.8908C25.546 18.9252 26.0416 20.2371 26.0416 21.6665C26.0416 25.0032 23.3367 27.7082 20 27.7082C16.6633 27.7082 13.9583 25.0032 13.9583 21.6665C13.9583 20.2371 14.4539 18.9252 15.2832 17.8908Z" fill="white"/>
</svg>
